<svg xmlns="http://www.w3.org/2000/svg" width="48" height="48" viewBox="0 0 48 48" fill="none">
  <path d="M23.9883 4.20825C24.1191 4.26453 27.7003 7.89401 28.0001 8.19375L43.816 24.003C43.696 24.1066 43.576 24.2234 43.4658 24.338C42.9045 24.9223 42.2782 25.4805 41.7429 26.0859C41.2174 25.6029 40.5825 24.927 40.0662 24.4113L36.1024 20.4586C35.4281 19.7839 34.6027 18.9101 33.9134 18.2747C33.9591 18.7676 33.9349 19.7939 33.931 20.3413C33.9251 21.1264 33.9649 22.1888 33.9052 22.9415C34.039 23.1053 34.4152 23.4558 34.586 23.6257L35.929 24.9663L38.1192 27.157C38.5317 27.5698 38.9719 28.0296 39.397 28.4203C39.0591 28.7801 38.6042 29.1809 38.2533 29.5528C38.071 29.7464 37.4649 30.3602 37.2804 30.4999C37.0435 30.2897 36.7139 29.9391 36.4845 29.7091L34.928 28.151C34.7538 27.9776 34.0934 27.2909 33.9331 27.1723C33.9092 27.2114 33.9356 29.2533 33.9378 29.4865C32.7413 29.4998 31.5176 29.4858 30.319 29.4858L22.933 29.4855C21.488 29.4855 19.956 29.4614 18.5163 29.4994C18.4978 29.1612 18.5106 28.7363 18.5117 28.3908L18.5131 26.5934L18.5132 20.7142L18.5133 16.1215C18.5151 15.7366 18.5144 15.3518 18.5113 14.9669C18.5076 14.6909 18.4892 14.3582 18.5107 14.0914C19.0146 14.0828 19.5345 14.1182 20.0417 14.1024C20.3178 14.0938 20.6553 14.0909 20.9276 14.1258C20.775 13.9956 20.6381 13.8563 20.4937 13.7183C19.4798 12.7489 18.5166 11.6804 17.4889 10.7286C17.6505 10.5327 18.0037 10.1998 18.1935 10.0104C18.6506 9.55788 19.1046 9.10224 19.5556 8.64356C19.8178 8.8369 20.1553 9.19838 20.3955 9.43875L21.7179 10.7617L23.8146 12.8575C24.1976 13.2407 24.6832 13.703 25.0362 14.1029C25.3275 14.0775 25.6784 14.0877 25.976 14.0876L27.4542 14.0869L28.8272 14.0859C29.1089 14.0858 29.5334 14.067 29.7921 14.1245C29.4692 13.8485 29.1005 13.4577 28.7942 13.151L27.2168 11.5738L21.9247 6.27286C22.5794 5.64298 23.3673 4.86581 23.9883 4.20825Z" fill="#83A598"/>
  <path d="M6.25388 21.9259C6.34168 21.9736 13.9545 29.531 14.1281 29.8012C14.1503 30.1158 14.1357 30.547 14.1352 30.8728L14.1324 32.8005C14.1319 33.0987 14.1155 33.5515 14.147 33.832C14.3386 33.9738 17.6209 33.8299 18.1175 33.8866C18.345 33.9124 19.1227 34.762 19.3027 34.942L21.1402 36.78L24.2777 39.9171C24.8765 40.5154 25.5323 41.1459 26.1065 41.7581C25.946 41.8779 25.6687 42.1725 25.5171 42.3251L24.521 43.3279C24.3984 43.4522 24.1746 43.7018 24.0363 43.788C24.0023 43.7756 23.9709 43.7576 23.9433 43.7344C23.7982 43.6139 23.4185 43.2129 23.275 43.0694L21.8787 41.673L17.4505 37.244L4.18109 23.9714C4.44868 23.6611 4.75151 23.4384 5.02747 23.162C5.41554 22.7734 5.89119 22.3318 6.25388 21.9259Z" fill="#83A598"/>
  <path d="M10.6881 17.5191C10.6971 17.5199 10.7063 17.5195 10.7151 17.5216C10.8238 17.5475 13.9628 20.6811 14.1245 20.9345C14.1533 21.3685 14.1359 21.9505 14.1353 22.3958L14.1331 25.0559C13.7963 24.7537 13.427 24.3703 13.1049 24.0457C12.6047 23.569 12.0799 23.0224 11.5882 22.5309L8.62659 19.5725C9.31858 18.8982 10.0004 18.1998 10.6881 17.5191Z" fill="#83A598"/>
  <path d="M22.9778 33.863C23.3196 33.8984 23.7879 33.8857 24.1439 33.8857L26.0658 33.8824C26.3688 33.8813 26.6845 33.8738 26.9867 33.8923C27.0851 33.8984 27.1992 33.9785 27.2707 34.0439C27.5531 34.3029 27.832 34.5931 28.103 34.8647L29.7417 36.506C29.9506 36.7149 30.2946 37.0809 30.5124 37.2527L30.5381 37.2729L29.5127 38.2901C29.1485 38.6491 28.789 39.0131 28.4349 39.382C28.0212 38.9356 27.4716 38.4141 27.0338 37.9765L24.3241 35.2681C24.097 35.0407 23.0618 34.0345 22.9778 33.863Z" fill="#83A598"/>
  <path d="M15.1241 13.068C15.2057 13.0935 17.1392 15.0494 17.383 15.2855C16.7595 15.8637 15.9037 16.731 15.3164 17.3519C15.1662 17.3104 13.3745 15.4004 13.0548 15.153C13.6892 14.4616 14.4681 13.7737 15.1241 13.068Z" fill="#83A598"/>
  <path d="M32.6949 30.6431C32.7877 30.6682 34.6845 32.6084 34.9753 32.8683C34.7878 33.0047 34.4234 33.3888 34.2389 33.5738L32.8976 34.9163C32.802 34.9029 32.2317 34.2959 32.112 34.1763L30.6436 32.7106C31.2724 32.1049 32.1139 31.2825 32.6949 30.6431Z" fill="#83A598"/>
</svg>
